<svg width="180" height="180" viewBox="0 0 180 180" fill="none" xmlns="http://www.w3.org/2000/svg">
<path d="M146 137H126.115L103.864 104.649V68.7414L130.936 107.602V42.5069H146V137Z" fill="url(#paint0_linear_4_8)"/>
<path d="M100.37 137H81.0707L56.1726 98.5632H49.2482V137H34V42H65.6751C76.2335 42 84.4346 44.4023 90.2785 49.2069C96.1225 53.963 99.0444 61.0243 99.0444 70.3908C99.0444 74.5645 98.3815 78.2529 97.0555 81.4559C95.7787 84.6105 93.9371 87.3282 91.5308 89.6092C89.1736 91.8902 86.399 93.7101 83.2069 95.069C80.0639 96.3793 76.6509 97.2771 72.9677 97.7624L100.37 137ZM83.7962 70.1724C83.7962 65.3193 82.1756 61.6794 78.9344 59.2529C75.7424 56.8263 71.3226 55.613 65.6751 55.613H49.2482V84.9502H65.6751C71.3226 84.9502 75.7424 83.7369 78.9344 81.3103C82.1756 78.8838 83.7962 75.1711 83.7962 70.1724Z" fill="url(#paint1_linear_4_8)"/>
<defs>
<linearGradient id="paint0_linear_4_8" x1="90" y1="42" x2="90" y2="137" gradientUnits="userSpaceOnUse">
<stop stop-color="#0000FF"/>
<stop offset="1" stop-color="#000099"/>
</linearGradient>
<linearGradient id="paint1_linear_4_8" x1="90" y1="42" x2="90" y2="137" gradientUnits="userSpaceOnUse">
<stop stop-color="#0000FF"/>
<stop offset="1" stop-color="#000099"/>
</linearGradient>
</defs>
</svg>
