<svg width="128" height="128" viewBox="0 0 128 128" fill="none" xmlns="http://www.w3.org/2000/svg">
<path d="M112 0C120.837 0 128 7.16344 128 16V112C128 120.837 120.837 128 112 128H16C7.16344 128 0 120.837 0 112V16C0 7.16344 7.16344 0 16 0H112ZM16 105H29.0957V71.8232H35.042L56.4248 105H73L49.4658 71.1318C52.629 70.7129 55.5605 69.9377 58.2598 68.8066C61.0009 67.6338 63.3839 66.0634 65.4082 64.0947C67.4748 62.1259 69.0568 59.7795 70.1533 57.0566C71.292 54.2919 71.8613 51.1083 71.8613 47.5059C71.8613 39.4211 69.3519 33.3259 64.333 29.2207C59.3141 25.0736 52.2708 23 43.2031 23H16V105ZM99.25 23.4375V79.625L76 46.082V77.0762L95.1104 105H112.188V23.4375H99.25ZM43.2031 34.75C48.0533 34.75 51.8494 35.7971 54.5908 37.8916C57.3744 39.9861 58.7656 43.1284 58.7656 47.3174C58.7656 51.6318 57.3741 54.8362 54.5908 56.9307C51.8494 59.0252 48.0533 60.0732 43.2031 60.0732H29.0957V34.75H43.2031Z" fill="black"/>
</svg>
