<svg width="97" height="82" viewBox="0 0 97 82" fill="none" xmlns="http://www.w3.org/2000/svg">
<path d="M96.1875 82H79.1104L60 54.0762V23.082L83.25 56.625V0.4375H96.1875V82Z" fill="url(#paint0_linear_4_11)"/>
<path d="M57 82H40.4251L19.0422 48.823H13.0955V82H0V0H27.2031C36.2708 0 43.3141 2.07356 48.333 6.22069C53.3518 10.3259 55.8613 16.4209 55.8613 24.5057C55.8613 28.1083 55.2919 31.292 54.1532 34.0567C53.0566 36.7796 51.475 39.1254 49.4084 41.0942C47.384 43.0631 45.0011 44.634 42.2597 45.8069C39.5605 46.9379 36.6293 47.7129 33.4661 48.1318L57 82ZM42.7658 24.3172C42.7658 20.1282 41.374 16.9865 38.5905 14.892C35.8491 12.7974 32.0533 11.7502 27.2031 11.7502H13.0955V37.0728H27.2031C32.0533 37.0728 35.8491 36.0255 38.5905 33.931C41.374 31.8365 42.7658 28.6319 42.7658 24.3172Z" fill="url(#paint1_linear_4_11)"/>
<defs>
<linearGradient id="paint0_linear_4_11" x1="48.0938" y1="0" x2="48.0938" y2="82" gradientUnits="userSpaceOnUse">
<stop stop-color="#0000FF"/>
<stop offset="1" stop-color="#000099"/>
</linearGradient>
<linearGradient id="paint1_linear_4_11" x1="48.0938" y1="0" x2="48.0938" y2="82" gradientUnits="userSpaceOnUse">
<stop stop-color="#0000FF"/>
<stop offset="1" stop-color="#000099"/>
</linearGradient>
</defs>
</svg>
